<svg width="51" height="51" xmlns="http://www.w3.org/2000/svg" xmlns:xlink="http://www.w3.org/1999/xlink" xml:space="preserve" overflow="hidden"><g transform="translate(-586 -485)"><g><path d="M590 512.5C590 500.073 600.073 490 612.5 490 624.926 490 635 500.073 635 512.5 635 524.926 624.926 535 612.5 535 600.073 535 590 524.926 590 512.5Z" stroke="#46B1E1" stroke-width="2.29167" stroke-linecap="butt" stroke-linejoin="miter" stroke-miterlimit="8" stroke-opacity="1" fill="none" fill-rule="evenodd"/><path d="M605 512C605 504.268 611.716 498 620 498 628.284 498 635 504.268 635 512 635 519.732 628.284 526 620 526 611.716 526 605 519.732 605 512Z" stroke="#46B1E1" stroke-width="2.29167" stroke-linecap="butt" stroke-linejoin="miter" stroke-miterlimit="8" stroke-opacity="1" fill="none" fill-rule="evenodd"/><path d="M590 512.5C590 509.462 592.686 507 596 507 599.314 507 602 509.462 602 512.5 602 515.538 599.314 518 596 518 592.686 518 590 515.538 590 512.5Z" stroke="#000000" stroke-width="2.29167" stroke-linecap="butt" stroke-linejoin="miter" stroke-miterlimit="8" stroke-opacity="1" fill="#000000" fill-rule="evenodd" fill-opacity="1"/></g></g></svg>